<svg width="32" height="32" viewBox="0 0 32 32" fill="none" xmlns="http://www.w3.org/2000/svg">
<g clip-path="url(#clip0_9_166)">
<path d="M25.5342 0H6.16365C2.76458 0 0 2.76458 0 6.16365V25.5342C0 28.9333 2.76458 31.6979 6.16365 31.6979H25.5342C28.9333 31.6979 31.6979 28.9333 31.6979 25.5342V6.16365C31.6979 2.76458 28.9333 0 25.5342 0ZM29.0564 25.5342C29.0564 27.4763 27.4763 29.0564 25.5342 29.0564H6.16365C4.22163 29.0564 2.64149 27.4763 2.64149 25.5342V6.16365C2.64149 4.22163 4.22163 2.64149 6.16365 2.64149H25.5342C27.4763 2.64149 29.0564 4.22163 29.0564 6.16365V25.5342Z" fill="white"/>
<path d="M15.849 20.3395C19.6939 20.3395 22.8225 17.2109 22.8225 13.3659C22.8225 9.52098 19.6939 6.3924 15.849 6.3924C12.004 6.3924 8.87543 9.52098 8.87543 13.3659C8.87543 17.2109 12.004 20.3395 15.849 20.3395ZM15.849 9.03389C18.2374 9.03389 20.181 10.9775 20.181 13.3659C20.181 15.7544 18.2374 17.698 15.849 17.698C13.4605 17.698 11.5169 15.7544 11.5169 13.3659C11.5169 10.9775 13.4605 9.03389 15.849 9.03389Z" fill="white"/>
<path d="M14.2778 15.9932C15.1455 15.9932 15.8489 15.2897 15.8489 14.422C15.8489 13.5543 15.1455 12.8509 14.2778 12.8509C13.41 12.8509 12.7066 13.5543 12.7066 14.422C12.7066 15.2897 13.41 15.9932 14.2778 15.9932Z" fill="white"/>
<path d="M25.305 20.5772C25.7112 19.4842 25.9442 18.3077 25.9442 17.0751C25.9442 16.3456 25.353 15.7544 24.6234 15.7544C23.8939 15.7544 23.3027 16.3456 23.3027 17.0751C23.3027 21.1853 19.9591 24.5289 15.8489 24.5289C11.7388 24.5289 8.39518 21.1853 8.39518 17.0751C8.39518 16.3456 7.80402 15.7544 7.07444 15.7544C6.34486 15.7544 5.75369 16.3456 5.75369 17.0751C5.75369 22.6418 10.2823 27.1704 15.8489 27.1704C17.0276 27.1704 18.155 26.957 19.2073 26.584C19.2718 26.7356 19.3637 26.8782 19.4873 27.0019C20.3125 27.8271 21.4093 28.2814 22.5758 28.2814C23.7422 28.2814 24.839 27.8271 25.6637 27.0024C26.4889 26.1777 26.9432 25.081 26.9432 23.9145C26.9432 22.748 26.4889 21.6513 25.6637 20.8261C25.5569 20.7193 25.4344 20.6396 25.305 20.5772ZM23.7956 25.1343C23.2256 25.7054 22.2831 25.7762 21.619 25.3467C22.5483 24.6974 23.3587 23.8939 24.0233 22.9762C24.2029 23.2536 24.3017 23.5764 24.3017 23.9145C24.3017 24.3752 24.1221 24.8084 23.7956 25.1343Z" fill="white"/>
</g>
<defs>
<clipPath id="clip0_9_166">
<rect width="32" height="32" fill="white"/>
</clipPath>
</defs>
</svg>
