<svg width="426" height="124" viewBox="0 0 426 124" fill="none" xmlns="http://www.w3.org/2000/svg">
<g clip-path="url(#clip0_5_103)">
<path d="M75.1673 65.9444C73.0483 65.9444 71.3228 69.1394 71.3228 73.0873C71.3228 77.0341 73.0483 80.238 75.1673 80.238C77.2853 80.238 79.0075 77.0352 79.0075 73.0873C79.0108 69.1372 77.2886 65.9444 75.1673 65.9444Z" fill="#FF3333"/>
<path d="M59.0779 65.9444C56.9544 65.9444 55.2322 69.1394 55.2322 73.0873C55.2322 77.0341 56.9544 80.238 59.0779 80.238C61.198 80.238 62.9192 77.0352 62.9192 73.0873C62.9192 69.1394 61.198 65.9444 59.0779 65.9444Z" fill="#FF3333"/>
<path d="M100.721 45.7454C101.368 44.1617 103.492 37.7727 100.048 29.1416C100.048 29.1416 94.7717 27.4721 82.8203 35.6383C77.8161 34.2611 72.4383 34.0556 67.1199 34.0556C61.8014 34.0556 56.428 34.2611 51.4085 35.6427C39.4614 27.471 34.1869 29.1405 34.1869 29.1405C30.7479 37.776 32.8735 44.1606 33.5187 45.7454C29.4685 50.1231 27 55.7119 27 62.5636C27 88.3591 43.7083 94.1919 67.0264 94.1919C90.3556 94.1919 107.235 88.3602 107.235 62.5636C107.235 55.7119 104.767 50.122 100.716 45.7454H100.721ZM67.122 89.256C50.5589 89.256 37.1302 88.48 37.1302 72.4334C37.1302 68.6009 39.0163 65.0223 42.2498 62.0657C47.6353 57.1308 56.7676 59.739 67.1231 59.739C77.4864 59.739 86.6055 57.1308 91.9965 62.0602C95.2333 65.0223 97.1248 68.5899 97.1248 72.429C97.1248 88.4811 83.6874 89.256 67.1242 89.256H67.122Z" fill="#FF3333"/>
<path d="M147.263 59.0874C147.667 59.0874 148.01 59.2287 148.293 59.5115C148.576 59.7943 148.717 60.1376 148.717 60.5416V63.5307C148.717 63.9077 148.576 64.2376 148.293 64.5204C148.01 64.8032 147.667 64.9445 147.263 64.9445H133.973V75.2855C133.973 75.6625 133.839 75.9924 133.569 76.2751C133.3 76.5579 132.963 76.6993 132.559 76.6993H129.489C129.112 76.6993 128.783 76.5579 128.5 76.2751C128.217 75.9924 128.076 75.6625 128.076 75.2855V60.5416C128.076 60.1376 128.217 59.7943 128.5 59.5115C128.783 59.2287 129.112 59.0874 129.489 59.0874H147.263ZM149.081 46.7267C149.458 46.7267 149.788 46.8681 150.07 47.1509C150.353 47.4336 150.495 47.7635 150.495 48.1405V51.0893C150.495 51.4932 150.353 51.8366 150.07 52.1194C149.788 52.4021 149.458 52.5435 149.081 52.5435H129.489C129.112 52.5435 128.783 52.4021 128.5 52.1194C128.217 51.8366 128.076 51.4932 128.076 51.0893V48.1405C128.076 47.7635 128.217 47.4336 128.5 47.1509C128.783 46.8681 129.112 46.7267 129.489 46.7267H149.081ZM165.158 71.0845C165.481 71.1922 165.737 71.374 165.925 71.6298C166.114 71.8856 166.208 72.1751 166.208 72.4983V75.6086C166.208 76.0395 166.033 76.403 165.683 76.6993C165.413 76.9147 165.117 77.0224 164.794 77.0224C164.659 77.0224 164.565 77.009 164.511 76.982C162.007 76.4973 159.853 75.3393 158.048 73.5081C155.625 71.0306 154.413 67.7721 154.413 63.7327V48.1809C154.413 47.777 154.554 47.4336 154.837 47.1509C155.12 46.8681 155.45 46.7267 155.827 46.7267H158.937C159.341 46.7267 159.684 46.8681 159.967 47.1509C160.25 47.4336 160.391 47.777 160.391 48.1809V63.8135C160.391 66.3718 161.118 68.3242 162.572 69.6707C163.326 70.3708 164.188 70.8421 165.158 71.0845ZM179.094 46.7267C179.498 46.7267 179.841 46.8681 180.124 47.1509C180.406 47.4336 180.548 47.777 180.548 48.1809V63.7327C180.548 67.7721 179.336 71.0306 176.912 73.5081C175.108 75.3393 172.954 76.4973 170.449 76.982C170.395 77.009 170.301 77.0224 170.167 77.0224C169.843 77.0224 169.547 76.9147 169.278 76.6993C168.928 76.43 168.753 76.053 168.753 75.5682V72.4579C168.753 72.1616 168.847 71.8856 169.035 71.6298C169.224 71.374 169.48 71.1922 169.803 71.0845C170.826 70.7882 171.688 70.317 172.388 69.6707C173.842 68.378 174.569 66.4257 174.569 63.8135V48.1809C174.569 47.777 174.711 47.4336 174.994 47.1509C175.276 46.8681 175.62 46.7267 176.024 46.7267H179.094ZM211.53 46.7267C211.907 46.7267 212.237 46.8681 212.52 47.1509C212.803 47.4336 212.944 47.7635 212.944 48.1405V75.2047C212.944 75.5817 212.803 75.9116 212.52 76.1943C212.237 76.4771 211.907 76.6185 211.53 76.6185H207.976C207.491 76.6185 207.1 76.43 206.804 76.053L187.051 48.9888C186.89 48.7734 186.795 48.531 186.769 48.2617C186.742 47.9924 186.789 47.7366 186.91 47.4942C187.031 47.2518 187.206 47.0633 187.435 46.9287C187.664 46.794 187.913 46.7267 188.182 46.7267H191.737C191.952 46.7267 192.168 46.7739 192.383 46.8681C192.599 46.9624 192.76 47.1037 192.868 47.2922L207.046 66.5603V48.1405C207.046 47.7635 207.181 47.4336 207.45 47.1509C207.72 46.8681 208.056 46.7267 208.46 46.7267H211.53ZM191.252 66.3179C191.629 66.3179 191.959 66.4526 192.242 66.7219C192.525 66.9912 192.666 67.3278 192.666 67.7317V75.2047C192.666 75.5817 192.525 75.9116 192.242 76.1943C191.959 76.4771 191.629 76.6185 191.252 76.6185H188.182C187.805 76.6185 187.475 76.4771 187.193 76.1943C186.91 75.9116 186.769 75.5817 186.769 75.2047V67.7317C186.769 67.3278 186.91 66.9912 187.193 66.7219C187.475 66.4526 187.805 66.3179 188.182 66.3179H191.252ZM245.138 74.3968C245.3 74.5853 245.394 74.8142 245.421 75.0835C245.448 75.3528 245.401 75.6086 245.28 75.851C245.158 76.0934 244.983 76.2819 244.755 76.4165C244.526 76.5512 244.277 76.6185 244.007 76.6185H240.17C239.927 76.6185 239.705 76.5646 239.503 76.4569C239.301 76.3492 239.133 76.2011 238.998 76.0126L229.344 62.1169L225.385 65.8332V75.2047C225.385 75.5817 225.244 75.9116 224.961 76.1943C224.679 76.4771 224.349 76.6185 223.972 76.6185H220.902C220.525 76.6185 220.195 76.4771 219.912 76.1943C219.629 75.9116 219.488 75.5817 219.488 75.2047V63.9751C219.488 63.5442 219.636 63.2076 219.932 62.9652L236.817 47.1307C237.086 46.8614 237.41 46.7267 237.787 46.7267H242.149C242.418 46.7267 242.674 46.8075 242.917 46.9691C243.159 47.1307 243.334 47.3461 243.442 47.6154C243.549 47.8847 243.576 48.1607 243.522 48.4435C243.469 48.7262 243.334 48.9753 243.119 49.1908L233.666 58.0775L245.138 74.3968ZM220.902 57.0273C220.525 57.0273 220.195 56.8926 219.912 56.6233C219.629 56.354 219.488 56.0174 219.488 55.6135V48.1405C219.488 47.7635 219.629 47.4336 219.912 47.1509C220.195 46.8681 220.525 46.7267 220.902 46.7267H223.972C224.349 46.7267 224.679 46.8681 224.961 47.1509C225.244 47.4336 225.385 47.7635 225.385 48.1405V55.6135C225.385 56.0174 225.244 56.354 224.961 56.6233C224.679 56.8926 224.349 57.0273 223.972 57.0273H220.902ZM260.205 47.0499C260.528 47.3192 260.69 47.6827 260.69 48.1405V51.1701C260.69 51.5202 260.589 51.8231 260.387 52.079C260.185 52.3348 259.909 52.5031 259.559 52.5839C257.836 52.934 256.368 53.7553 255.156 55.0479C253.513 56.7714 252.692 59.0133 252.692 61.7736C252.692 64.5339 253.513 66.7892 255.156 68.5396C256.368 69.8053 257.836 70.6132 259.559 70.9633C259.909 71.0441 260.185 71.2124 260.387 71.4682C260.589 71.724 260.69 72.027 260.69 72.3771V75.4067C260.69 75.8375 260.528 76.2011 260.205 76.4973C259.909 76.7127 259.599 76.8204 259.276 76.8204H259.034C255.91 76.3088 253.231 74.895 250.995 72.5791C248.195 69.6976 246.794 66.1092 246.794 61.814C246.794 57.5187 248.195 53.9034 250.995 50.9681C253.177 48.706 255.856 47.3057 259.034 46.7671C259.465 46.6863 259.855 46.7806 260.205 47.0499ZM272.889 50.9681C275.69 53.9034 277.09 57.5187 277.09 61.814C277.09 66.1092 275.69 69.6976 272.889 72.5791C270.654 74.895 267.974 76.3088 264.851 76.8204H264.608C264.285 76.8204 263.975 76.7127 263.679 76.4973C263.356 76.2011 263.195 75.8375 263.195 75.4067V72.3771C263.195 72.027 263.295 71.724 263.497 71.4682C263.699 71.2124 263.975 71.0441 264.326 70.9633C266.049 70.6132 267.517 69.8053 268.729 68.5396C270.371 66.7892 271.193 64.5339 271.193 61.7736C271.193 59.0133 270.371 56.7714 268.729 55.0479C267.517 53.7553 266.049 52.934 264.326 52.5839C263.975 52.5031 263.699 52.3348 263.497 52.079C263.295 51.8231 263.195 51.5202 263.195 51.1701V48.1405C263.195 47.6827 263.363 47.3192 263.699 47.0499C264.036 46.7806 264.42 46.6863 264.851 46.7671C268.028 47.3057 270.708 48.706 272.889 50.9681ZM301.69 61.713C302.848 62.4401 303.73 63.3288 304.336 64.379C304.942 65.4293 305.245 66.6007 305.245 67.8933C305.245 70.9364 304.087 73.2658 301.771 74.8815C300.209 76.0126 298.095 76.7262 295.429 77.0224H295.268C294.891 77.0224 294.581 76.9012 294.338 76.6589C294.015 76.3626 293.854 76.0126 293.854 75.6086V72.7002C293.854 72.3502 293.975 72.0405 294.217 71.7712C294.46 71.5019 294.756 71.3403 295.106 71.2864C296.372 71.1518 297.355 70.8556 298.055 70.3978C298.593 70.0746 298.957 69.6572 299.145 69.1455C299.253 68.8493 299.307 68.4723 299.307 68.0145C299.307 67.7183 299.253 67.4624 299.145 67.247C299.038 67.0316 298.849 66.8296 298.58 66.6411C297.799 66.1025 296.789 65.6447 295.55 65.2677L294.904 65.0657C293.558 64.6887 292.319 64.379 291.188 64.1367C290.945 64.0828 290.555 63.9885 290.016 63.8539L289.572 63.7327C288.603 63.4903 287.579 63.1537 286.502 62.7229C284.913 62.0496 283.607 61.2013 282.584 60.178C281.399 58.9931 280.806 57.4312 280.806 55.4923C280.806 52.8263 281.83 50.6584 283.876 48.9888C285.277 47.8039 287.243 47.0499 289.774 46.7267C290.205 46.6729 290.575 46.794 290.885 47.0903C291.194 47.3865 291.349 47.7366 291.349 48.1405V51.0489C291.349 51.399 291.242 51.7087 291.026 51.978C290.811 52.2473 290.535 52.4021 290.198 52.4425C289.861 52.4829 289.518 52.557 289.168 52.6647C288.387 52.9609 287.835 53.2504 287.512 53.5332C287.189 53.8159 286.96 54.1054 286.825 54.4016C286.691 54.8594 286.623 55.2903 286.623 55.6942C286.623 55.9097 286.744 56.1386 286.987 56.381C287.364 56.758 287.916 57.0946 288.643 57.3908C288.966 57.5255 289.532 57.7274 290.339 57.9967L295.389 59.2489L295.631 59.3297C296.897 59.6798 297.812 59.9491 298.378 60.1376C299.644 60.5685 300.748 61.0936 301.69 61.713ZM294.944 52.5839C294.621 52.5031 294.359 52.3348 294.157 52.079C293.955 51.8231 293.854 51.5202 293.854 51.1701V48.2213C293.854 47.7904 294.029 47.4269 294.379 47.1307C294.514 46.996 294.689 46.9085 294.904 46.8681C295.119 46.8277 295.321 46.821 295.51 46.8479C297.88 47.2249 299.805 48.0328 301.286 49.2716C303.306 50.9412 304.383 53.0686 304.518 55.6539C304.545 56.0309 304.417 56.3742 304.134 56.6839C303.851 56.9936 303.508 57.1484 303.104 57.1484H299.953C299.603 57.1484 299.294 57.0273 299.024 56.7849C298.755 56.5425 298.607 56.2463 298.58 55.8962C298.472 55.1961 298.243 54.6171 297.893 54.1593C297.328 53.486 296.452 52.9744 295.268 52.6243C295.187 52.6243 295.133 52.6108 295.106 52.5839H294.944ZM290.218 71.1249C290.541 71.1787 290.811 71.3403 291.026 71.6096C291.242 71.8789 291.349 72.1751 291.349 72.4983V75.4874C291.349 75.9183 291.188 76.2819 290.865 76.5781C290.595 76.7935 290.286 76.9012 289.936 76.9012H289.734C287.229 76.5242 285.169 75.7029 283.553 74.4372C281.453 72.7676 280.268 70.4382 279.999 67.449C279.945 67.0181 280.066 66.6478 280.362 66.3381C280.658 66.0285 281.008 65.8736 281.412 65.8736H284.603C284.98 65.8736 285.304 66.0015 285.573 66.2574C285.842 66.5132 285.99 66.8296 286.017 67.2066C286.098 68.5531 286.758 69.5899 287.997 70.317C288.562 70.6401 289.303 70.9094 290.218 71.1249ZM311.344 57.0677C310.967 57.0677 310.638 56.9263 310.355 56.6435C310.072 56.3608 309.931 56.0309 309.931 55.6539V48.1405C309.931 47.7635 310.072 47.4336 310.355 47.1509C310.638 46.8681 310.967 46.7267 311.344 46.7267H314.414C314.818 46.7267 315.155 46.8681 315.424 47.1509C315.694 47.4336 315.828 47.7635 315.828 48.1405V55.6539C315.828 56.0309 315.694 56.3608 315.424 56.6435C315.155 56.9263 314.818 57.0677 314.414 57.0677H311.344ZM333.279 46.7267C333.656 46.7267 333.985 46.8681 334.268 47.1509C334.551 47.4336 334.692 47.7635 334.692 48.1405V75.2855C334.692 75.6625 334.551 75.9924 334.268 76.2751C333.985 76.5579 333.656 76.6993 333.279 76.6993H330.209C329.805 76.6993 329.468 76.5579 329.199 76.2751C328.929 75.9924 328.795 75.6625 328.795 75.2855V64.6214H315.828V75.2855C315.828 75.6625 315.694 75.9924 315.424 76.2751C315.155 76.5579 314.818 76.6993 314.414 76.6993H311.344C310.967 76.6993 310.638 76.5579 310.355 76.2751C310.072 75.9924 309.931 75.6625 309.931 75.2855V60.178C309.931 59.801 310.072 59.4711 310.355 59.1884C310.638 58.9056 310.967 58.7642 311.344 58.7642H328.795V48.1405C328.795 47.7635 328.929 47.4336 329.199 47.1509C329.468 46.8681 329.805 46.7267 330.209 46.7267H333.279ZM352.951 47.0499C353.274 47.3192 353.435 47.6827 353.435 48.1405V51.1701C353.435 51.5202 353.334 51.8231 353.132 52.079C352.93 52.3348 352.654 52.5031 352.304 52.5839C350.581 52.934 349.113 53.7553 347.901 55.0479C346.259 56.7714 345.437 59.0133 345.437 61.7736C345.437 64.5339 346.259 66.7892 347.901 68.5396C349.113 69.8053 350.581 70.6132 352.304 70.9633C352.654 71.0441 352.93 71.2124 353.132 71.4682C353.334 71.724 353.435 72.027 353.435 72.3771V75.4067C353.435 75.8375 353.274 76.2011 352.951 76.4973C352.654 76.7127 352.345 76.8204 352.021 76.8204H351.779C348.655 76.3088 345.976 74.895 343.741 72.5791C340.94 69.6976 339.54 66.1092 339.54 61.814C339.54 57.5187 340.94 53.9034 343.741 50.9681C345.922 48.706 348.601 47.3057 351.779 46.7671C352.21 46.6863 352.6 46.7806 352.951 47.0499ZM365.634 50.9681C368.435 53.9034 369.835 57.5187 369.835 61.814C369.835 66.1092 368.435 69.6976 365.634 72.5791C363.399 74.895 360.72 76.3088 357.596 76.8204H357.354C357.03 76.8204 356.721 76.7127 356.424 76.4973C356.101 76.2011 355.94 75.8375 355.94 75.4067V72.3771C355.94 72.027 356.041 71.724 356.243 71.4682C356.445 71.2124 356.721 71.0441 357.071 70.9633C358.794 70.6132 360.262 69.8053 361.474 68.5396C363.116 66.7892 363.938 64.5339 363.938 61.7736C363.938 59.0133 363.116 56.7714 361.474 55.0479C360.262 53.7553 358.794 52.934 357.071 52.5839C356.721 52.5031 356.445 52.3348 356.243 52.079C356.041 51.8231 355.94 51.5202 355.94 51.1701V48.1405C355.94 47.6827 356.108 47.3192 356.445 47.0499C356.781 46.7806 357.165 46.6863 357.596 46.7671C360.774 47.3057 363.453 48.706 365.634 50.9681ZM388.296 46.7267C391.5 46.7267 394.085 47.6491 396.051 49.4937C398.017 51.3384 399 53.7957 399 56.8657C399 59.9356 398.031 62.3862 396.092 64.2174C394.153 66.0486 391.554 66.9643 388.296 66.9643H380.58V75.2047C380.58 75.5817 380.439 75.9116 380.156 76.1943C379.873 76.4771 379.543 76.6185 379.166 76.6185H376.096C375.719 76.6185 375.39 76.4771 375.107 76.1943C374.824 75.9116 374.683 75.5817 374.683 75.2047V62.6825C374.683 62.3054 374.824 61.9756 375.107 61.6928C375.39 61.41 375.719 61.2687 376.096 61.2687H388.053C389.857 61.2687 391.15 60.8782 391.931 60.0972C392.712 59.3971 393.102 58.3333 393.102 56.9061C393.102 55.4788 392.699 54.3814 391.891 53.6139C391.083 52.8465 389.804 52.4627 388.053 52.4627H376.096C375.719 52.4627 375.39 52.3213 375.107 52.0386C374.824 51.7558 374.683 51.4259 374.683 51.0489V48.1405C374.683 47.7635 374.824 47.4336 375.107 47.1509C375.39 46.8681 375.719 46.7267 376.096 46.7267H388.296Z" fill="#111111"/>
</g>
<defs>
<clipPath id="clip0_5_103">
<rect width="372" height="65.1919" fill="white" transform="translate(27 29)"/>
</clipPath>
</defs>
</svg>
